<?xml version="1.0" encoding="UTF-8" standalone="no"?>
<svg
   xmlns:dc="http://purl.org/dc/elements/1.1/"
   xmlns:cc="http://creativecommons.org/ns#"
   xmlns:rdf="http://www.w3.org/1999/02/22-rdf-syntax-ns#"
   xmlns:svg="http://www.w3.org/2000/svg"
   xmlns="http://www.w3.org/2000/svg"
   xmlns:sodipodi="http://sodipodi.sourceforge.net/DTD/sodipodi-0.dtd"
   xmlns:inkscape="http://www.inkscape.org/namespaces/inkscape"
   width="107.86897mm"
   height="38.17691mm"
   viewBox="0 0 382.2129 135.27252"
   id="svg2"
   version="1.1"
   inkscape:version="1.0.1 (3bc2e813f5, 2020-09-07)"
   sodipodi:docname="darsyar-white.svg">
  <defs
     id="defs4">
    <style
       id="style6"
       type="text/css">
    .fil0 {fill:#004234}
    .fil1 {fill:#34A853}
   </style>
  </defs>
  <sodipodi:namedview
     id="base"
     pagecolor="#ffffff"
     bordercolor="#666666"
     borderopacity="1.0"
     inkscape:pageopacity="0.0"
     inkscape:pageshadow="2"
     inkscape:zoom="1.4"
     inkscape:cx="39.410569"
     inkscape:cy="108.30439"
     inkscape:document-units="px"
     inkscape:current-layer="layer1"
     showgrid="false"
     fit-margin-top="0"
     fit-margin-left="0"
     fit-margin-right="0"
     fit-margin-bottom="0"
     inkscape:window-width="1920"
     inkscape:window-height="1016"
     inkscape:window-x="1920"
     inkscape:window-y="0"
     inkscape:window-maximized="1"
     inkscape:document-rotation="0" />
  <metadata
     id="metadata7">
    <rdf:RDF>
      <cc:Work
         rdf:about="">
        <dc:format>image/svg+xml</dc:format>
        <dc:type
           rdf:resource="http://purl.org/dc/dcmitype/StillImage" />
        <dc:title></dc:title>
      </cc:Work>
    </rdf:RDF>
  </metadata>
  <g
     inkscape:label="Layer 1"
     inkscape:groupmode="layer"
     id="layer1"
     transform="translate(-258.74427,-367.68585)">
    <g
       id="g4459"
       transform="matrix(0.99908048,0,0,0.99908048,-213.74914,-74.09858)"
       style="fill:#ffffff">
      <g
         id="g4461"
         transform="translate(-6.0683965,-190.54765)"
         style="fill:#ffffff">
        <path
           id="path4463"
           d="m 749.36212,632.73868 v 58.04883 58.05078 h 25.80078 25.79883 V 690.78751 632.73868 H 775.1629 Z m 9.5633,9.56445 h 32.47186 v 96.97852 h -32.47186 c 0,-32.32617 0,-64.65235 0,-96.97852 z"
           style="fill:#ffffff;fill-opacity:1"
           inkscape:connector-curvature="0"
           sodipodi:nodetypes="cccccccccccccc" />
        <path
           sodipodi:nodetypes="cccccccccccccc"
           id="path4465"
           d="m 809.6629,697.23868 v 25.79883 25.80078 h 25.94922 25.94922 v -25.80078 -25.79883 h -25.94922 z m 9.55277,9.57422 h 32.7929 v 32.46875 h -32.7929 z"
           style="fill:#ffffff;fill-opacity:1"
           inkscape:connector-curvature="0" />
        <path
           sodipodi:nodetypes="cccccccccccccc"
           id="path4467"
           d="m 689.36212,632.73868 v 25.95117 25.94922 h 25.94922 25.95117 v -25.94922 -25.95117 h -25.95117 z m 9.56641,9.56836 h 32.76953 v 32.76562 h -32.76953 z"
           style="fill:#ffffff;fill-opacity:1"
           inkscape:connector-curvature="0" />
        <path
           sodipodi:nodetypes="cccccccccccccc"
           id="path4469"
           d="m 809.6629,632.73868 v 25.95117 25.94922 h 25.94922 25.94922 v -25.94922 -25.95117 h -25.94922 z m 9.55277,9.56836 h 32.78118 v 32.76953 h -32.78118 z"
           style="fill:#ffffff;fill-opacity:1"
           inkscape:connector-curvature="0" />
      </g>
    </g>
    <g
       id="g985"
       style="fill:#ececec">
      <path
         id="path4477"
         d="m 258.74428,497.93129 v -4.67951 l 4.06122,-0.27271 c 9.50721,-0.63848 14.58412,-4.36239 16.93102,-12.41891 0.72831,-2.50014 0.86998,-5.25872 0.92287,-17.96782 l 0.0625,-15.0142 h 4.39461 4.3946 l 0.13226,12.55285 c 0.0727,6.90408 -0.0692,15.28579 -0.31553,18.62603 -0.40653,5.51415 -0.6111,6.40368 -2.22249,9.66413 -4.12463,8.34558 -12.38114,13.16539 -23.80753,13.89779 l -4.55348,0.29181 v -4.67946 z"
         style="fill:#ececec;fill-opacity:0.901961;stroke-width:1.6409"
         inkscape:connector-curvature="0" />
      <path
         id="path4481"
         d="m 306.0021,497.2973 v -4.67656 h 5.66109 5.6611 v 4.67656 4.67655 h -5.6611 -5.66109 z"
         style="fill:#ececec;fill-opacity:0.901961;stroke-width:1.6409"
         inkscape:connector-curvature="0" />
      <path
         id="path4483"
         d="m 325.20059,497.2973 v -4.67656 h 5.66109 5.66109 v 4.67656 4.67655 h -5.66109 -5.66109 z"
         style="fill:#ececec;fill-opacity:0.901961;stroke-width:1.6409"
         inkscape:connector-curvature="0" />
      <path
         id="path4485"
         style="fill:#ececec;fill-opacity:0.901961;stroke-width:1.75029"
         d="M 40.904297 57.650391 L 41.074219 83.511719 C 41.241195 108.37574 41.294558 109.48634 42.367188 112.32617 C 44.733085 118.59003 48.395936 122.12829 53.740234 123.30664 C 55.47456 123.6891 60.786714 123.83963 68.525391 123.72656 C 79.812292 123.56151 80.771198 123.46989 83.21875 122.3418 C 84.659155 121.67788 86.372015 120.63531 87.025391 120.02148 L 88.216797 118.90234 L 89.394531 119.98633 C 91.661738 122.06357 94.731521 123.30993 98.929688 123.82617 C 101.03579 124.14547 100.86876 124.25273 108.00586 124.14844 C 119.29276 123.98338 120.25167 123.89178 122.69922 122.76367 C 124.13961 122.09977 125.85248 121.05719 126.50586 120.44336 L 127.69727 119.32422 L 128.875 120.4082 C 131.71685 123.05917 137.52511 124.1001 138.21875 124.10742 C 141.4976 124.14922 143.55238 124.06462 144.99609 123.91406 C 148.0861 123.74447 149.22435 123.44345 150.69922 122.76367 C 152.13962 122.09976 153.85248 121.05719 154.50586 120.44336 L 155.69727 119.32422 L 156.875 120.4082 C 159.71684 123.05916 163.83174 123.71924 164.52539 123.72656 C 175.81258 123.87039 176.66055 123.18957 179.21875 122.3418 C 191.67215 118.21481 189.46965 96.715524 189.4668 84.431641 L 184.54102 84.431641 L 179.61523 84.431641 L 179.35742 94.539062 C 179.03874 107.20669 178.14776 109.99702 173.68945 112.27148 C 171.91343 113.17764 167.47353 114.27176 162.24805 110.57617 C 161.17448 108.22525 160.95398 103.02248 160.95117 94.697266 L 160.94727 84.853516 L 156.02148 84.853516 L 151.0957 84.853516 L 150.83789 94.960938 C 150.58194 105.13516 149.9523 108.93561 147.40625 111.2168 C 146.90033 111.59724 146.33649 111.94139 145.68945 112.27148 C 143.91344 113.17764 139.47353 114.27177 134.24805 110.57617 C 133.17448 108.22526 132.95398 103.02248 132.95117 94.697266 L 132.94727 84.853516 L 128.02148 84.853516 L 123.0957 84.853516 L 122.83789 94.960938 C 122.51921 107.62856 121.62824 110.4189 117.16992 112.69336 C 115.3939 113.5995 114.06792 113.73242 106.74805 113.73242 C 102.11135 113.73242 99.746775 112.87442 98.929688 112.56641 C 97.606335 111.93885 96.614565 111.0195 95.705078 109.66992 C 93.789942 106.82804 93.474202 104.63834 93.470703 94.275391 L 93.466797 84.431641 L 88.541016 84.431641 L 83.615234 84.431641 L 83.357422 94.539062 C 83.038745 107.20668 82.147757 109.99702 77.689453 112.27148 C 75.913432 113.17764 74.587461 113.31055 67.267578 113.31055 C 62.630896 113.31055 58.217479 113.06192 57.400391 112.75391 C 56.587399 112.44736 55.147668 111.44818 54.201172 110.53516 C 51.069407 107.51428 50.933594 106.27521 50.933594 80.660156 L 50.933594 57.650391 L 45.917969 57.650391 L 40.904297 57.650391 z "
         transform="matrix(0.93750003,0,0,0.93750003,258.74427,367.68585)" />
      <path
         id="path907"
         d="m 434.99428,497.93129 v -4.67951 l 4.06122,-0.27271 c 9.50721,-0.63848 14.58412,-4.36239 16.93102,-12.41891 0.72831,-2.50014 0.86998,-5.25872 0.92287,-17.96782 l 0.0625,-15.0142 h 4.39461 4.3946 l 0.13226,12.55285 c 0.0727,6.90408 -0.0692,15.28579 -0.31553,18.62603 -0.40653,5.51415 -0.6111,6.40368 -2.22249,9.66413 -4.12463,8.34558 -12.38114,13.16539 -23.80753,13.89779 l -4.55348,0.29181 v -4.67946 z"
         style="fill:#ececec;fill-opacity:0.901961;stroke-width:1.6409"
         inkscape:connector-curvature="0" />
      <path
         id="path909"
         style="fill:#ececec;fill-opacity:0.901961;stroke-width:1.6409"
         d="m 479.56697,434.73724 c -0.76195,0.005 -1.49181,0.0486 -2.17894,0.13001 l -2.4994,0.2948 v 4.97681 4.9768 l 3.08899,-0.16113 c 1.69823,-0.0879 4.61018,0.19608 6.47278,0.62805 8.51251,1.9742 16.43169,7.87677 21.71448,16.1847 0.64901,1.02071 0.87733,2.33944 0.8606,4.97131 -0.0455,7.06741 -0.69684,7.35395 -17.2577,7.5769 -11.75342,0.15835 -12.5567,0.10881 -14.52026,-0.84961 -0.7582,-0.3701 -1.63589,-1.03275 -2.33642,-1.70837 V 483.815 l 17.54883,-0.14831 17.65685,-0.15381 3.07617,-1.41906 c 3.52844,-1.62966 6.59398,-4.66664 7.50916,-7.43958 0.92758,-2.81066 0.37277,-9.14218 -1.15173,-13.15797 -3.03405,-7.99222 -11.75994,-17.42403 -20.54261,-22.20702 -5.18002,-2.82106 -12.10709,-4.59002 -17.4408,-4.55201 z" />
    </g>
  </g>
</svg>
