<?xml version="1.0" encoding="UTF-8" standalone="no"?>
<svg
   xmlns:dc="http://purl.org/dc/elements/1.1/"
   xmlns:cc="http://creativecommons.org/ns#"
   xmlns:rdf="http://www.w3.org/1999/02/22-rdf-syntax-ns#"
   xmlns:svg="http://www.w3.org/2000/svg"
   xmlns="http://www.w3.org/2000/svg"
   xmlns:sodipodi="http://sodipodi.sourceforge.net/DTD/sodipodi-0.dtd"
   xmlns:inkscape="http://www.inkscape.org/namespaces/inkscape"
   width="124.89986mm"
   height="124.84789mm"
   viewBox="0 0 124.89986 124.84789"
   version="1.1"
   id="svg8"
   inkscape:version="1.0.1 (3bc2e813f5, 2020-09-07)"
   sodipodi:docname="user-icon.svg">
  <defs
     id="defs2" />
  <sodipodi:namedview
     id="base"
     pagecolor="#ffffff"
     bordercolor="#666666"
     borderopacity="1.0"
     inkscape:pageopacity="0.0"
     inkscape:pageshadow="2"
     inkscape:zoom="1.9296205"
     inkscape:cx="206.27614"
     inkscape:cy="324.7382"
     inkscape:document-units="mm"
     inkscape:current-layer="layer1"
     inkscape:document-rotation="0"
     showgrid="false"
     fit-margin-top="0"
     fit-margin-left="0"
     fit-margin-right="0"
     fit-margin-bottom="0"
     inkscape:window-width="1920"
     inkscape:window-height="1016"
     inkscape:window-x="0"
     inkscape:window-y="0"
     inkscape:window-maximized="1" />
  <metadata
     id="metadata5">
    <rdf:RDF>
      <cc:Work
         rdf:about="">
        <dc:format>image/svg+xml</dc:format>
        <dc:type
           rdf:resource="http://purl.org/dc/dcmitype/StillImage" />
        <dc:title></dc:title>
      </cc:Work>
    </rdf:RDF>
  </metadata>
  <g
     inkscape:label="Layer 1"
     inkscape:groupmode="layer"
     id="layer1"
     transform="translate(-39.517735,-115.04337)">
    <ellipse
       style="opacity:0.7;fill:#ffffff;fill-opacity:1;stroke-width:0.982792;stroke-linecap:round;stroke-linejoin:round;paint-order:markers fill stroke"
       id="path920"
       cx="102.26977"
       cy="177.7402"
       rx="60.106827"
       ry="60.538418" />
    <path
       style="fill:#015000;fill-opacity:1;stroke-width:0.264583"
       d="M 94.419529,239.521 C 81.322236,237.93276 68.712171,231.91908 58.884307,222.5744 48.350005,212.55802 41.626301,199.11249 39.939135,184.68935 c -2.247684,-19.21487 4.575927,-38.30863 18.562187,-51.94053 3.430285,-3.34338 5.385508,-4.92307 9.223218,-7.45177 18.379622,-12.11048 41.85337,-13.59765 61.64791,-3.90569 3.91124,1.91504 8.90416,5.05581 11.77396,7.40632 12.77521,10.46354 21.00307,25.36165 22.8832,41.43439 0.75305,6.43761 0.39478,14.18828 -0.94338,20.40878 -0.89775,4.17322 -2.99857,10.1635 -4.9783,14.19512 -9.36674,19.07491 -27.93111,32.24983 -48.89819,34.70248 -4.07928,0.47718 -10.776406,0.46928 -14.790211,-0.0175 z m 12.633751,-7.53617 c 6.66353,-0.67199 12.6436,-2.36934 18.61501,-5.28358 4.0912,-1.99663 7.40233,-4.06992 10.51718,-6.58542 2.37322,-1.91656 2.40213,-2.02189 1.50086,-5.46579 -2.40203,-9.17842 -11.07839,-16.65046 -22.86596,-19.69204 -4.63531,-1.19606 -6.94292,-1.45831 -12.83229,-1.45831 -5.889365,0 -8.196982,0.26225 -12.832291,1.45831 -11.787568,3.04158 -20.46393,10.51362 -22.865955,19.69204 -0.901279,3.4439 -0.87236,3.54923 1.500852,5.46579 3.114855,2.5155 6.425983,4.58879 10.517187,6.58542 9.066995,4.42498 19.054931,6.26082 28.745407,5.28358 z M 59.659332,209.90386 c 1.11774,-3.55141 4.004852,-7.90581 7.640422,-11.52345 4.258551,-4.23754 9.353065,-7.37741 15.557399,-9.58838 l 2.432613,-0.86688 -1.572588,-1.27296 c -2.920632,-2.36416 -5.889373,-6.22444 -7.548477,-9.81535 -5.087302,-11.0108 -2.653898,-23.98686 6.06508,-32.34186 3.780428,-3.62262 7.877096,-5.90584 13.007424,-7.24952 2.037964,-0.53376 3.010609,-0.62367 6.746875,-0.62367 4.96783,0 7.27742,0.4509 11.40229,2.22603 11.12196,4.78632 18.20283,16.81098 16.91931,28.7322 -0.81578,7.57695 -4.51006,14.58719 -10.0507,19.07217 l -1.57259,1.27296 2.43262,0.86688 c 9.96592,3.55145 17.90792,10.14054 21.93862,18.20141 0.50936,1.01865 1.07725,2.32833 1.26198,2.91042 0.18473,0.58208 0.3895,1.152 0.45505,1.26649 0.33761,0.58972 4.21238,-5.4352 6.42979,-9.99774 5.36169,-11.03224 6.80237,-22.51351 4.35405,-34.69907 -3.02806,-15.07101 -12.7933,-28.60071 -26.22957,-36.34096 -9.90358,-5.70518 -21.42172,-8.24033 -32.406046,-7.13261 -12.979397,1.30892 -24.410659,6.71222 -33.562834,15.8644 -9.152175,9.15218 -14.555476,20.58344 -15.864398,33.56283 -1.287936,12.77131 2.394901,26.22073 10.131348,36.99887 0.75146,1.04691 1.441204,1.82082 1.532766,1.7198 0.09156,-0.10103 0.316366,-0.65993 0.499566,-1.24201 z m 44.716938,-24.48732 c 4.98088,-0.61747 9.11451,-2.73645 12.67424,-6.49706 1.7429,-1.84125 2.39768,-2.78313 3.44733,-4.95888 1.75704,-3.64205 2.23295,-5.95996 2.06615,-10.0632 -0.10349,-2.54569 -0.27767,-3.64201 -0.84565,-5.32271 -2.28765,-6.76929 -7.48325,-11.71854 -14.36147,-13.68049 -2.9233,-0.83386 -7.814283,-0.83386 -10.73758,0 -6.878216,1.96195 -12.073818,6.9112 -14.361469,13.68049 -0.567983,1.6807 -0.742161,2.77702 -0.845648,5.32271 -0.166801,4.10324 0.309102,6.42115 2.066147,10.0632 2.937934,6.08984 9.127056,10.58262 15.747732,11.43153 2.594248,0.33264 2.661318,0.33296 5.150218,0.0244 z"
       id="path863" />
  </g>
</svg>
